<?xml version="1.0" standalone="no"?>
<!DOCTYPE svg PUBLIC "-//W3C//DTD SVG 20010904//EN"
 "http://www.w3.org/TR/2001/REC-SVG-20010904/DTD/svg10.dtd">
<svg version="1.0" xmlns="http://www.w3.org/2000/svg"
 width="624.000000pt" height="512.000000pt" viewBox="0 0 624.000000 512.000000"
 preserveAspectRatio="xMidYMid meet">
<metadata>
Created by potrace 1.15, written by Peter Selinger 2001-2017
</metadata>
<g transform="translate(0.000000,512.000000) scale(0.100000,-0.100000)"
fill="#000000" stroke="none">
<path d="M2893 5100 c-98 -21 -227 -85 -298 -147 -22 -20 -74 -86 -91 -118
-11 -20 -25 -20 -1010 -25 l-999 -5 -65 -24 c-116 -43 -193 -103 -235 -186
-20 -38 -20 -58 -20 -2089 0 -1983 1 -2052 19 -2091 41 -88 150 -165 286 -202
61 -17 203 -18 2600 -18 2397 0 2539 1 2600 18 136 37 245 114 286 202 18 39
19 108 19 2091 0 2031 0 2051 -20 2089 -42 83 -119 143 -235 186 l-65 24
-1000 5 c-990 5 -1000 5 -1010 25 -40 79 -125 159 -214 201 -127 61 -155 67
-336 70 -93 2 -189 -1 -212 -6z m314 -205 c95 -28 173 -98 173 -156 0 -37 39
-91 80 -111 30 -15 71 -17 288 -18 l252 0 0 -105 0 -105 -920 0 -920 0 0 105
0 105 253 0 c216 1 257 3 287 18 40 20 80 74 80 109 0 59 66 121 163 154 65
23 194 25 264 4z m-1357 -446 c0 -145 2 -164 20 -189 45 -63 -11 -60 1210 -60
1221 0 1165 -3 1210 60 18 25 20 44 20 189 l0 162 638 -3 c584 -3 640 -4 669
-20 69 -38 63 151 63 -2088 l0 -2026 -28 -27 c-16 -15 -44 -32 -63 -37 -47
-14 -4971 -14 -5018 0 -19 5 -47 22 -63 37 l-28 27 0 2026 c0 1814 2 2028 16
2048 17 25 46 42 89 53 17 4 308 7 648 8 l617 1 0 -161z"/>
<path d="M5298 3392 c-25 -13 -72 -75 -201 -267 -92 -137 -172 -257 -177 -265
-7 -12 -34 9 -127 103 -122 120 -157 142 -203 125 -48 -18 -60 -37 -60 -97 l0
-57 178 -177 c162 -161 181 -177 213 -177 19 1 44 6 56 13 12 7 121 160 242
342 237 353 240 359 201 423 -11 17 -21 32 -22 32 -2 0 -17 4 -35 9 -24 7 -40
5 -65 -7z"/>
<path d="M3764 3316 c-77 -36 -124 -111 -124 -195 0 -38 30 -114 56 -142 14
-15 12 -23 -17 -73 -22 -40 -41 -61 -64 -70 -40 -17 -55 -42 -55 -90 0 -62 75
-97 128 -60 30 20 44 58 33 86 -6 17 4 42 46 114 29 51 53 98 53 103 0 6 -13
17 -30 26 -79 41 -80 179 0 220 16 8 45 15 65 15 82 0 131 -56 122 -143 -4
-46 -3 -50 27 -68 17 -10 34 -19 37 -19 10 0 29 75 29 111 0 49 -42 132 -81
161 -72 53 -145 61 -225 24z"/>
<path d="M3802 3190 c-26 -24 -36 -60 -27 -90 8 -26 44 -60 64 -60 10 0 38
-39 70 -95 30 -52 59 -95 65 -95 6 1 22 7 36 15 61 35 149 4 176 -62 54 -127
-105 -234 -205 -139 l-26 25 -38 -23 -37 -23 35 -36 c20 -21 40 -37 45 -37 5
0 16 -8 26 -17 13 -14 34 -18 86 -18 38 0 72 5 76 10 4 6 23 21 43 34 57 38
83 86 87 162 3 52 0 74 -17 106 -41 80 -143 134 -225 119 -33 -6 -35 -5 -70
53 -28 46 -35 65 -30 89 6 31 -8 69 -35 89 -25 19 -75 15 -99 -7z"/>
<path d="M1027 3013 c-23 -6 -47 -54 -47 -93 0 -37 23 -85 45 -94 31 -11 1912
-7 1938 5 13 6 31 23 40 39 26 44 21 78 -17 116 l-34 34 -953 -1 c-525 -1
-962 -3 -972 -6z"/>
<path d="M3577 2957 c-51 -16 -103 -60 -127 -107 -26 -52 -27 -138 -1 -189 17
-33 36 -52 111 -114 24 -19 143 -16 164 6 10 9 21 17 26 17 18 0 79 73 90 106
l12 34 70 0 c55 0 75 -4 95 -20 84 -66 184 50 108 125 -30 31 -73 32 -108 5
-22 -17 -40 -20 -135 -20 l-109 0 -5 -50 c-12 -118 -148 -167 -222 -79 -34 40
-41 72 -27 119 13 43 51 78 93 87 26 5 28 9 28 49 0 48 -3 49 -63 31z"/>
<path d="M5290 2047 c-15 -7 -91 -110 -193 -262 -92 -137 -172 -257 -177 -265
-7 -12 -35 11 -133 108 -119 117 -125 122 -166 122 -62 0 -91 -32 -91 -102 l0
-54 178 -177 c162 -161 181 -177 213 -177 19 1 44 6 57 13 36 20 462 666 462
700 0 81 -78 130 -150 94z"/>
<path d="M3784 2006 c-77 -36 -124 -111 -124 -195 0 -38 30 -114 56 -142 14
-15 12 -23 -17 -73 -22 -40 -41 -61 -64 -70 -40 -17 -55 -42 -55 -90 0 -62 75
-97 128 -60 30 20 44 58 33 86 -6 17 4 42 46 114 29 51 53 98 53 103 0 6 -13
17 -30 26 -79 41 -80 179 0 220 16 8 45 15 65 15 82 0 131 -56 122 -143 -4
-46 -3 -50 27 -68 17 -10 34 -19 37 -19 10 0 29 75 29 111 0 49 -42 132 -81
161 -72 53 -145 61 -225 24z"/>
<path d="M3822 1880 c-26 -24 -36 -60 -27 -90 8 -26 44 -60 64 -60 10 0 38
-39 70 -95 30 -52 59 -95 65 -95 6 1 22 7 36 15 61 35 149 4 176 -62 54 -127
-105 -234 -205 -139 l-26 25 -37 -23 -37 -22 29 -33 c103 -112 289 -84 354 53
22 48 21 138 -4 185 -40 79 -143 132 -224 117 -33 -6 -35 -5 -70 53 -28 46
-35 65 -30 89 6 31 -8 69 -35 89 -25 19 -75 15 -99 -7z"/>
<path d="M3597 1647 c-188 -59 -198 -325 -15 -401 108 -46 250 21 283 132 6
20 12 22 77 22 55 0 75 -4 95 -20 84 -66 184 50 108 125 -30 31 -73 32 -108 5
-22 -17 -40 -20 -135 -20 l-109 0 -5 -50 c-12 -118 -148 -167 -222 -79 -34 40
-41 72 -27 119 13 43 51 78 93 87 26 5 28 9 28 49 0 48 -3 49 -63 31z"/>
<path d="M1124 1620 c-60 -24 -73 -112 -25 -161 l29 -29 956 0 c665 0 962 3
979 11 13 6 31 23 40 39 26 44 21 78 -17 116 l-34 34 -953 -1 c-525 0 -964 -4
-975 -9z"/>
</g>
</svg>
